<?xml version="1.0" standalone="no"?>
<!DOCTYPE svg PUBLIC "-//W3C//DTD SVG 20010904//EN"
 "http://www.w3.org/TR/2001/REC-SVG-20010904/DTD/svg10.dtd">
<svg version="1.0" xmlns="http://www.w3.org/2000/svg"
 width="512.000000pt" height="512.000000pt" viewBox="0 0 512.000000 512.000000"
 preserveAspectRatio="xMidYMid meet">

<g transform="translate(0.000000,512.000000) scale(0.100000,-0.100000)"
fill="#000000" stroke="none">
<path d="M2370 5113 c-379 -36 -661 -116 -980 -278 -378 -193 -717 -497 -965
-865 -104 -156 -232 -419 -294 -605 -49 -150 -89 -321 -113 -490 -17 -118 -17
-512 0 -630 42 -295 120 -553 242 -800 137 -280 272 -468 494 -691 221 -220
412 -357 681 -489 188 -92 309 -137 500 -185 500 -126 1002 -102 1490 71 150
53 408 183 540 271 302 202 573 480 769 788 72 113 188 353 235 486 235 662
194 1372 -115 1993 -124 250 -263 447 -458 648 -214 222 -430 379 -711 518
-296 146 -572 225 -900 255 -102 9 -333 11 -415 3z m545 -342 c634 -107 1171
-457 1523 -995 170 -258 286 -563 339 -891 24 -153 24 -497 0 -650 -108 -668
-474 -1222 -1042 -1580 -243 -153 -537 -261 -850 -312 -154 -24 -497 -24 -650
1 -497 81 -907 288 -1256 636 -345 343 -555 758 -636 1255 -24 153 -24 497 0
650 105 647 447 1183 983 1541 306 205 675 333 1054 368 108 10 418 -4 535
-23z"/>
<path d="M1810 3664 c-253 -18 -512 -57 -730 -110 -216 -53 -259 -77 -281
-156 -21 -79 35 -177 112 -198 33 -9 58 -6 171 24 520 137 1093 161 1688 71
472 -71 914 -220 1249 -421 115 -68 142 -77 195 -63 109 29 157 178 84 256
-37 40 -192 131 -353 209 -396 191 -846 311 -1375 369 -137 15 -635 28 -760
19z"/>
<path d="M1685 2780 c-242 -21 -616 -85 -673 -114 -50 -26 -75 -62 -80 -115
-6 -66 2 -93 39 -136 48 -54 85 -60 220 -31 314 68 577 91 942 83 607 -13
1107 -129 1601 -373 98 -48 162 -74 184 -74 139 0 214 188 110 275 -17 15 -79
50 -137 80 -408 204 -842 329 -1365 391 -153 19 -687 27 -841 14z"/>
<path d="M1865 1989 c-225 -20 -579 -81 -690 -117 -141 -48 -135 -261 10 -301
31 -8 67 -4 209 24 361 72 547 89 871 82 253 -6 369 -19 560 -64 222 -52 394
-121 688 -277 134 -70 153 -78 190 -73 111 15 175 147 114 238 -60 91 -442
285 -732 373 -137 42 -310 79 -466 101 -135 19 -603 28 -754 14z"/>
</g>
</svg>
